<svg width="449" height="449" viewBox="0 0 449 449" fill="none" xmlns="http://www.w3.org/2000/svg">
<circle cx="225" cy="225" r="224" fill="white"/>
<path d="M229.195 271.453H219.805V290.234H229.195V271.453Z" fill="black"/>
<path d="M229.195 158.766H219.805V177.547H229.195V158.766Z" fill="black"/>
<path d="M177.547 219.805H158.766V229.195H177.547V219.805Z" fill="black"/>
<path d="M290.234 219.805H271.453V229.195H290.234V219.805Z" fill="black"/>
<path d="M274.283 267.663L260.996 254.376L254.356 261.016L267.643 274.303L274.283 267.663Z" fill="black"/>
<path d="M194.603 187.984L181.316 174.697L174.676 181.337L187.963 194.624L194.603 187.984Z" fill="black"/>
<path d="M194.623 261.014L187.982 254.374L174.696 267.661L181.336 274.301L194.623 261.014Z" fill="black"/>
<path d="M274.298 181.337L267.658 174.697L254.371 187.984L261.011 194.624L274.298 181.337Z" fill="black"/>
<path d="M284.295 384.234C267.297 384.234 248.084 377.731 227.988 364.915C196.602 344.902 166.508 311.692 143.25 271.406C119.991 231.12 106.279 188.456 104.638 151.267C102.95 112.981 114.249 84.8377 136.456 72.0148C158.662 59.1919 188.689 63.4811 220.999 84.0841C252.385 104.098 282.48 137.308 305.738 177.594C328.996 217.879 342.709 260.543 344.35 297.733C346.038 336.018 334.736 364.162 312.53 376.982C304.137 381.83 294.622 384.234 284.295 384.234ZM164.747 74.1558C156.035 74.1558 148.093 76.1396 141.151 80.1471C122.125 91.1294 112.491 116.24 114.017 150.851C115.592 186.559 128.861 227.707 151.382 266.711C173.901 305.715 202.897 337.777 233.033 356.997C262.245 375.625 288.807 379.832 307.832 368.852C326.858 357.87 336.492 332.76 334.966 298.148C333.391 262.44 320.122 221.293 297.601 182.289C275.082 143.285 246.086 111.223 215.95 92.0027C197.396 80.1705 179.911 74.1558 164.747 74.1558Z" fill="black"/>
<path d="M164.704 384.234C154.375 384.234 144.864 381.833 136.469 376.985C114.263 364.164 102.963 336.018 104.649 297.735C106.29 260.546 120.003 217.879 143.261 177.596C166.519 137.313 196.614 104.103 228 84.0864C260.308 63.4858 290.337 59.1919 312.543 72.0171C334.75 84.8377 346.049 112.984 344.364 151.267C342.723 188.456 329.01 231.122 305.752 271.406C282.493 311.689 252.399 344.899 221.013 364.915C200.917 377.729 181.704 384.234 164.704 384.234ZM284.252 74.1558C269.088 74.1558 251.605 80.1705 233.047 92.0027C202.91 111.223 173.914 143.285 151.396 182.289C128.875 221.293 115.606 262.438 114.03 298.148C112.504 332.76 122.139 357.87 141.165 368.852C160.185 379.832 186.749 375.625 215.963 356.997C246.1 337.777 275.096 305.715 297.615 266.711C320.136 227.707 333.405 186.562 334.98 150.851C336.506 116.24 326.871 91.1294 307.846 80.1471C300.908 76.142 292.962 74.1558 284.252 74.1558Z" fill="black"/>
<path d="M224.5 318.312C177.984 318.312 134.176 308.853 101.152 291.68C67.1507 274 48.4258 250.141 48.4258 224.5C48.4258 198.859 67.1507 175 101.152 157.319C134.176 140.146 177.984 130.688 224.5 130.688C271.016 130.688 314.824 140.146 347.848 157.319C381.849 175 400.574 198.859 400.574 224.5C400.574 250.141 381.849 274 347.848 291.68C314.824 308.853 271.016 318.312 224.5 318.312ZM224.5 140.078C132.592 140.078 57.8164 177.948 57.8164 224.5C57.8164 271.052 132.592 308.922 224.5 308.922C316.408 308.922 391.184 271.052 391.184 224.5C391.184 177.948 316.408 140.078 224.5 140.078Z" fill="black"/>
<path d="M224.5 259.715C243.949 259.715 259.715 243.949 259.715 224.5C259.715 205.051 243.949 189.285 224.5 189.285C205.051 189.285 189.285 205.051 189.285 224.5C189.285 243.949 205.051 259.715 224.5 259.715Z" fill="#FF7A00"/>
<path d="M224.5 264.41C202.493 264.41 184.59 246.507 184.59 224.5C184.59 202.493 202.493 184.59 224.5 184.59C246.507 184.59 264.41 202.493 264.41 224.5C264.41 246.507 246.507 264.41 224.5 264.41ZM224.5 193.98C207.672 193.98 193.98 207.672 193.98 224.5C193.98 241.328 207.672 255.02 224.5 255.02C241.328 255.02 255.02 241.328 255.02 224.5C255.02 207.672 241.328 193.98 224.5 193.98Z" fill="black"/>
</svg>
