<svg width="152" height="65" viewBox="0 0 152 65" fill="none" xmlns="http://www.w3.org/2000/svg">
<path d="M17.1591 8.1818C16.9887 6.7424 16.2974 5.625 15.0853 4.8295C13.8731 4.0341 12.3864 3.6364 10.625 3.6364C9.3371 3.6364 8.2103 3.8447 7.2443 4.2614C6.2879 4.678 5.5398 5.2509 5 5.9801C4.4697 6.7093 4.2046 7.5379 4.2046 8.4659C4.2046 9.2424 4.3892 9.91 4.7585 10.4688C5.1373 11.018 5.6203 11.4773 6.2074 11.8466C6.7945 12.2064 7.4101 12.5047 8.054 12.7415C8.6979 12.9687 9.2898 13.1534 9.8296 13.2955L12.7841 14.0909C13.5417 14.2898 14.3845 14.5644 15.3125 14.9148C16.25 15.2652 17.1449 15.7434 17.9972 16.3494C18.8589 16.946 19.5692 17.7131 20.1279 18.6506C20.6866 19.5881 20.9659 20.7386 20.9659 22.1023C20.9659 23.6742 20.554 25.0947 19.7301 26.3636C18.9157 27.6326 17.7226 28.6411 16.1506 29.3892C14.5881 30.1373 12.6894 30.5114 10.4546 30.5114C8.3712 30.5114 6.5673 30.1752 5.0426 29.5028C3.5275 28.8305 2.3343 27.893 1.4631 26.6903C0.6014 25.4877 0.1137 24.0909 0 22.5H3.6364C3.7311 23.5985 4.1004 24.5076 4.7443 25.2273C5.3978 25.9375 6.2216 26.4678 7.2159 26.8182C8.2197 27.1591 9.2993 27.3295 10.4546 27.3295C11.7993 27.3295 13.0067 27.1117 14.0767 26.6761C15.1468 26.2311 15.9943 25.6155 16.6193 24.8295C17.2443 24.0341 17.5568 23.1061 17.5568 22.0455C17.5568 21.0795 17.287 20.2936 16.7472 19.6875C16.2074 19.0814 15.4972 18.589 14.6165 18.2102C13.7358 17.8314 12.7841 17.5 11.7614 17.2159L8.1818 16.1932C5.9091 15.5398 4.1099 14.607 2.7841 13.3949C1.4584 12.1828 0.7955 10.5966 0.7955 8.6364C0.7955 7.0076 1.2358 5.5871 2.1165 4.375C3.0067 3.1534 4.1998 2.2064 5.6961 1.5341C7.2017 0.8523 8.8826 0.5114 10.7387 0.5114C12.6137 0.5114 14.2803 0.847499 15.7387 1.5199C17.197 2.1828 18.3523 3.0919 19.2046 4.2472C20.0663 5.4025 20.5209 6.714 20.5682 8.1818H17.1591ZM34.3669 30.4545C32.3215 30.4545 30.5601 29.9716 29.0828 29.0057C27.6056 28.0398 26.4692 26.7093 25.6737 25.0142C24.8783 23.3191 24.4806 21.3826 24.4806 19.2045C24.4806 16.9886 24.8878 15.0331 25.7022 13.3381C26.526 11.6335 27.6719 10.303 29.1397 9.3466C30.6169 8.3807 32.3404 7.8977 34.3101 7.8977C35.8442 7.8977 37.2268 8.1818 38.4578 8.75C39.6889 9.3182 40.6974 10.1136 41.4834 11.1364C42.2694 12.1591 42.7571 13.3523 42.9465 14.7159H39.5942C39.3385 13.7216 38.7703 12.8409 37.8897 12.0739C37.0184 11.2973 35.8442 10.9091 34.3669 10.9091C33.0601 10.9091 31.9143 11.25 30.9294 11.9318C29.9541 12.6042 29.1917 13.5559 28.6425 14.7869C28.1027 16.0085 27.8328 17.4432 27.8328 19.0909C27.8328 20.7765 28.098 22.2443 28.6283 23.4943C29.1681 24.7443 29.9256 25.715 30.901 26.4062C31.8859 27.0975 33.0412 27.4432 34.3669 27.4432C35.2381 27.4432 36.0289 27.2917 36.7391 26.9886C37.4493 26.6856 38.0506 26.25 38.5431 25.6818C39.0355 25.1136 39.3859 24.4318 39.5942 23.6364H42.9465C42.7571 24.9242 42.2883 26.0843 41.5402 27.1165C40.8016 28.1392 39.8215 28.9536 38.5999 29.5597C37.3878 30.1562 35.9768 30.4545 34.3669 30.4545ZM47.047 30V8.1818H50.3993V30H47.047ZM48.7516 4.5455C48.0982 4.5455 47.5347 4.3229 47.0613 3.8778C46.5972 3.4328 46.3652 2.8977 46.3652 2.2727C46.3652 1.6477 46.5972 1.1127 47.0613 0.667601C47.5347 0.222501 48.0982 0 48.7516 0C49.405 0 49.9637 0.222501 50.4277 0.667601C50.9012 1.1127 51.138 1.6477 51.138 2.2727C51.138 2.8977 50.9012 3.4328 50.4277 3.8778C49.9637 4.3229 49.405 4.5455 48.7516 4.5455ZM64.887 30.4545C62.7847 30.4545 60.9712 29.9905 59.4466 29.0625C57.9315 28.125 56.762 26.8182 55.9381 25.142C55.1237 23.4564 54.7165 21.4962 54.7165 19.2614C54.7165 17.0265 55.1237 15.0568 55.9381 13.3523C56.762 11.6383 57.9078 10.303 59.3756 9.3466C60.8529 8.3807 62.5764 7.8977 64.546 7.8977C65.6824 7.8977 66.8046 8.0871 67.9125 8.4659C69.0205 8.8447 70.029 9.4602 70.9381 10.3125C71.8472 11.1553 72.5716 12.2727 73.1114 13.6648C73.6512 15.0568 73.921 16.7708 73.921 18.8068V20.2273H57.1029V17.3295H70.512C70.512 16.0985 70.2657 15 69.7733 14.0341C69.2904 13.0682 68.5991 12.3059 67.6995 11.7472C66.8093 11.1884 65.7582 10.9091 64.546 10.9091C63.2108 10.9091 62.0555 11.2405 61.0801 11.9034C60.1142 12.5568 59.3709 13.4091 58.85 14.4602C58.3292 15.5114 58.0688 16.6383 58.0688 17.8409V19.7727C58.0688 21.4205 58.3529 22.8172 58.921 23.9631C59.4987 25.0994 60.2989 25.9659 61.3216 26.5625C62.3443 27.1496 63.5328 27.4432 64.887 27.4432C65.7676 27.4432 66.5631 27.3201 67.2733 27.0739C67.993 26.8182 68.6133 26.4394 69.1341 25.9375C69.655 25.4261 70.0574 24.7917 70.3415 24.0341L73.5801 24.9432C73.2392 26.0417 72.6663 27.0076 71.8614 27.8409C71.0565 28.6648 70.0621 29.3087 68.8784 29.7727C67.6947 30.2273 66.3642 30.4545 64.887 30.4545ZM81.5728 16.875V30H78.2205V8.1818H81.4591V11.5909H81.7433C82.2543 10.483 83.0313 9.5928 84.0723 8.9205C85.1143 8.2386 86.4593 7.8977 88.1073 7.8977C89.5843 7.8977 90.8763 8.2008 91.9843 8.8068C93.0923 9.4034 93.9543 10.3125 94.5703 11.5341C95.1853 12.7462 95.4933 14.2803 95.4933 16.1364V30H92.1413V16.3636C92.1413 14.6496 91.6963 13.3144 90.8053 12.358C89.9153 11.392 88.6943 10.9091 87.1413 10.9091C86.0713 10.9091 85.1143 11.1411 84.2713 11.6051C83.4383 12.0691 82.7803 12.7462 82.2973 13.6364C81.8143 14.5265 81.5728 15.6061 81.5728 16.875ZM109.682 30.4545C107.637 30.4545 105.875 29.9716 104.398 29.0057C102.921 28.0398 101.785 26.7093 100.989 25.0142C100.194 23.3191 99.7963 21.3826 99.7963 19.2045C99.7963 16.9886 100.203 15.0331 101.017 13.3381C101.841 11.6335 102.987 10.303 104.455 9.3466C105.932 8.3807 107.656 7.8977 109.625 7.8977C111.16 7.8977 112.542 8.1818 113.773 8.75C115.004 9.3182 116.013 10.1136 116.799 11.1364C117.585 12.1591 118.072 13.3523 118.262 14.7159H114.91C114.654 13.7216 114.086 12.8409 113.205 12.0739C112.334 11.2973 111.16 10.9091 109.682 10.9091C108.375 10.9091 107.23 11.25 106.245 11.9318C105.269 12.6042 104.507 13.5559 103.958 14.7869C103.418 16.0085 103.148 17.4432 103.148 19.0909C103.148 20.7765 103.413 22.2443 103.944 23.4943C104.483 24.7443 105.241 25.715 106.216 26.4062C107.201 27.0975 108.356 27.4432 109.682 27.4432C110.553 27.4432 111.344 27.2917 112.054 26.9886C112.765 26.6856 113.366 26.25 113.858 25.6818C114.351 25.1136 114.701 24.4318 114.91 23.6364H118.262C118.072 24.9242 117.604 26.0843 116.856 27.1165C116.117 28.1392 115.137 28.9536 113.915 29.5597C112.703 30.1562 111.292 30.4545 109.682 30.4545ZM131.51 30.4545C129.408 30.4545 127.594 29.9905 126.07 29.0625C124.555 28.125 123.385 26.8182 122.561 25.142C121.747 23.4564 121.34 21.4962 121.34 19.2614C121.34 17.0265 121.747 15.0568 122.561 13.3523C123.385 11.6383 124.531 10.303 125.999 9.3466C127.476 8.3807 129.199 7.8977 131.169 7.8977C132.306 7.8977 133.428 8.0871 134.536 8.4659C135.644 8.8447 136.652 9.4602 137.561 10.3125C138.47 11.1553 139.195 12.2727 139.735 13.6648C140.274 15.0568 140.544 16.7708 140.544 18.8068V20.2273H123.726V17.3295H137.135C137.135 16.0985 136.889 15 136.396 14.0341C135.914 13.0682 135.222 12.3059 134.323 11.7472C133.432 11.1884 132.381 10.9091 131.169 10.9091C129.834 10.9091 128.679 11.2405 127.703 11.9034C126.737 12.5568 125.994 13.4091 125.473 14.4602C124.952 15.5114 124.692 16.6383 124.692 17.8409V19.7727C124.692 21.4205 124.976 22.8172 125.544 23.9631C126.122 25.0994 126.922 25.9659 127.945 26.5625C128.967 27.1496 130.156 27.4432 131.51 27.4432C132.391 27.4432 133.186 27.3201 133.896 27.0739C134.616 26.8182 135.236 26.4394 135.757 25.9375C136.278 25.4261 136.681 24.7917 136.965 24.0341L140.203 24.9432C139.862 26.0417 139.289 27.0076 138.485 27.8409C137.68 28.6648 136.685 29.3087 135.502 29.7727C134.318 30.2273 132.987 30.4545 131.51 30.4545ZM1.25 34.9091H5.4546L15.3409 59.0568H15.6818L25.5682 34.9091H29.7728V64H26.4773V41.8977H26.1932L17.1023 64H13.9205L4.8296 41.8977H4.5455V64H1.25V34.9091ZM49.3314 55.0795V42.1818H52.6837V64H49.3314V60.3068H49.1041C48.5928 61.4148 47.7973 62.357 46.7178 63.1335C45.6382 63.9006 44.2746 64.2841 42.6269 64.2841C41.2632 64.2841 40.0511 63.9858 38.9905 63.3892C37.9299 62.7831 37.0966 61.8741 36.4905 60.6619C35.8845 59.4403 35.5814 57.9015 35.5814 56.0455V42.1818H38.9337V55.8182C38.9337 57.4091 39.3788 58.678 40.2689 59.625C41.1685 60.572 42.3144 61.0455 43.7064 61.0455C44.5398 61.0455 45.3873 60.8324 46.249 60.4062C47.1202 59.9801 47.8494 59.3267 48.4365 58.446C49.0331 57.5653 49.3314 56.4432 49.3314 55.0795ZM73.4782 47.0682L70.4668 47.9205C70.2774 47.4186 69.998 46.9309 69.6287 46.4574C69.2689 45.9744 68.7765 45.5767 68.1515 45.2642C67.5264 44.9517 66.7263 44.7955 65.7509 44.7955C64.4157 44.7955 63.303 45.1032 62.4128 45.7188C61.5321 46.3248 61.0918 47.0966 61.0918 48.0341C61.0918 48.8674 61.3948 49.5256 62.0009 50.0085C62.6069 50.4915 63.5539 50.8939 64.8418 51.2159L68.0804 52.0114C70.0312 52.4848 71.4848 53.2093 72.4412 54.1847C73.3977 55.1506 73.8759 56.3958 73.8759 57.9205C73.8759 59.1705 73.516 60.2879 72.7963 61.2727C72.0861 62.2576 71.0918 63.0341 69.8134 63.6023C68.535 64.1705 67.0482 64.4545 65.3532 64.4545C63.1278 64.4545 61.2859 63.9716 59.8276 63.0057C58.3693 62.0398 57.446 60.6288 57.0577 58.7727L60.2395 57.9773C60.5425 59.1515 61.1155 60.0322 61.9583 60.6193C62.8105 61.2064 63.9232 61.5 65.2963 61.5C66.8588 61.5 68.0994 61.1686 69.0179 60.5057C69.946 59.8333 70.41 59.0284 70.41 58.0909C70.41 57.3333 70.1448 56.6989 69.6145 56.1875C69.0842 55.6667 68.2698 55.2784 67.1713 55.0227L63.535 54.1705C61.5369 53.697 60.0691 52.9631 59.1316 51.9688C58.2035 50.965 57.7395 49.7102 57.7395 48.2045C57.7395 46.9735 58.0852 45.8845 58.7764 44.9375C59.4772 43.9905 60.4289 43.2472 61.6316 42.7074C62.8437 42.1676 64.2168 41.8977 65.7509 41.8977C67.91 41.8977 69.605 42.3712 70.8361 43.3182C72.0766 44.2652 72.9573 45.5152 73.4782 47.0682ZM87.2693 64.4545C85.1673 64.4545 83.3543 63.9905 81.8293 63.0625C80.3143 62.125 79.1448 60.8182 78.3209 59.142C77.5065 57.4564 77.0993 55.4962 77.0993 53.2614C77.0993 51.0265 77.5065 49.0568 78.3209 47.3523C79.1448 45.6383 80.2906 44.303 81.7583 43.3466C83.2353 42.3807 84.9593 41.8977 86.9293 41.8977C88.0653 41.8977 89.1873 42.0871 90.2953 42.4659C91.4033 42.8447 92.4123 43.4602 93.3213 44.3125C94.2303 45.1553 94.9543 46.2727 95.4943 47.6648C96.0343 49.0568 96.3043 50.7708 96.3043 52.8068V54.2273H79.4857V51.3295H92.8943C92.8943 50.0985 92.6483 49 92.1563 48.0341C91.6733 47.0682 90.9823 46.3059 90.0823 45.7472C89.1923 45.1884 88.1413 44.9091 86.9293 44.9091C85.5933 44.9091 84.4383 45.2405 83.4633 45.9034C82.4973 46.5568 81.7533 47.4091 81.2328 48.4602C80.712 49.5114 80.4516 50.6383 80.4516 51.8409V53.7727C80.4516 55.4205 80.7357 56.8172 81.3039 57.9631C81.8813 59.0994 82.6813 59.9659 83.7043 60.5625C84.7273 61.1496 85.9153 61.4432 87.2693 61.4432C88.1503 61.4432 88.9463 61.3201 89.6563 61.0739C90.3763 60.8182 90.9963 60.4394 91.5173 59.9375C92.0373 59.4261 92.4403 58.7917 92.7243 58.0341L95.9633 58.9432C95.6223 60.0417 95.0493 61.0076 94.2443 61.8409C93.4393 62.6648 92.4453 63.3087 91.2613 63.7727C90.0773 64.2273 88.7473 64.4545 87.2693 64.4545ZM114.353 55.0795V42.1818H117.705V64H114.353V60.3068H114.126C113.614 61.4148 112.819 62.357 111.739 63.1335C110.66 63.9006 109.296 64.2841 107.648 64.2841C106.285 64.2841 105.073 63.9858 104.012 63.3892C102.951 62.7831 102.118 61.8741 101.512 60.6619C100.906 59.4403 100.603 57.9015 100.603 56.0455V42.1818H103.955V55.8182C103.955 57.4091 104.4 58.678 105.29 59.625C106.19 60.572 107.336 61.0455 108.728 61.0455C109.561 61.0455 110.409 60.8324 111.271 60.4062C112.142 59.9801 112.871 59.3267 113.458 58.446C114.055 57.5653 114.353 56.4432 114.353 55.0795ZM123.045 64V42.1818H126.284V45.5909H126.568C127.022 44.4261 127.756 43.5218 128.77 42.8778C129.783 42.2244 131 41.8977 132.42 41.8977C133.86 41.8977 135.057 42.2244 136.014 42.8778C136.98 43.5218 137.733 44.4261 138.272 45.5909H138.5C139.058 44.464 139.897 43.5691 141.014 42.9062C142.131 42.2339 143.471 41.8977 145.034 41.8977C146.985 41.8977 148.58 42.5085 149.821 43.7301C151.061 44.9422 151.682 46.8314 151.682 49.3977V64H148.329V49.3977C148.329 47.7879 147.889 46.6373 147.008 45.946C146.128 45.2547 145.091 44.9091 143.897 44.9091C142.363 44.9091 141.175 45.3731 140.332 46.3011C139.489 47.2197 139.068 48.3845 139.068 49.7955V64H135.659V49.0568C135.659 47.8163 135.256 46.8172 134.451 46.0597C133.647 45.2926 132.61 44.9091 131.341 44.9091C130.469 44.9091 129.655 45.1411 128.897 45.6051C128.149 46.0691 127.543 46.7131 127.079 47.5369C126.625 48.3513 126.397 49.2936 126.397 50.3636V64H123.045Z" fill="white"/>
</svg>
